<svg viewBox="0 0 512 512" xmlns="http://www.w3.org/2000/svg">
  <path fill="#ff69b4" d="M368.4 127.1c-5.6-5.6-15.4-5.6-21.2 0l-89.2 89.2-89.2-89.2c-5.6-5.6-15.4-5.6-21.2 0-5.6 5.6-5.6 15.4 0 21.2l89.2 89.2-89.2 89.2c-5.6 5.6-5.6 15.4 0 21.2 2.8 2.8 6.6 4.4 10.6 4.4s7.8-1.6 10.6-4.4l89.2-89.2 89.2 89.2c2.8 2.8 6.6 4.4 10.6 4.4s7.8-1.6 10.6-4.4c5.6-5.6 5.6-15.4 0-21.2l-89.2-89.2 89.2-89.2c5.6-5.8 5.6-15.6 0-21.2z"/>
  <path fill="#4CAF50" d="M256 0C114.6 0 0 114.6 0 256s114.6 256 256 256 256-114.6 256-256S397.4 0 256 0zm0 482C131.1 482 30 380.9 30 256S131.1 30 256 30s226 101.1 226 226-101.1 226-226 226z"/>
</svg> 